<svg width="12" height="14" viewBox="0 0 12 14" fill="none" xmlns="http://www.w3.org/2000/svg">
<path fill-rule="evenodd" clip-rule="evenodd" d="M6.00002 0.333313C3.0545 0.333313 0.666687 3.0017 0.666687 5.99998C0.666687 8.97476 2.3689 12.2083 5.02473 13.4496C5.64385 13.739 6.35619 13.739 6.97531 13.4496C9.63114 12.2083 11.3334 8.97476 11.3334 5.99998C11.3334 3.0017 8.94554 0.333313 6.00002 0.333313ZM6.00002 6.99998C6.7364 6.99998 7.33335 6.40303 7.33335 5.66665C7.33335 4.93027 6.7364 4.33331 6.00002 4.33331C5.26364 4.33331 4.66669 4.93027 4.66669 5.66665C4.66669 6.40303 5.26364 6.99998 6.00002 6.99998Z" fill="#363062"/>
</svg>
